<svg width="183" height="50" viewBox="0 0 183 50" fill="none" xmlns="http://www.w3.org/2000/svg">
<g opacity="0.8" clip-path="url(#clip0_429_73)">
<path d="M39.736 27.1772C38.4983 25.9419 36.9217 25.1008 35.2054 24.7602C33.4892 24.4196 31.7103 24.5949 30.0938 25.2638C28.4772 25.9328 27.0956 27.0654 26.1236 28.5184C25.1515 29.9715 24.6327 31.6797 24.6327 33.4272C24.6327 35.1747 25.1515 36.8829 26.1236 38.336C27.0956 39.789 28.4772 40.9216 30.0938 41.5906C31.7103 42.2595 33.4892 42.4348 35.2054 42.0942C36.9217 41.7537 38.4983 40.9125 39.736 39.6772C40.5584 38.8567 41.2108 37.8824 41.6559 36.81C42.101 35.7376 42.3301 34.5881 42.3301 33.4272C42.3301 32.2663 42.101 31.1168 41.6559 30.0444C41.2108 28.972 40.5584 27.9977 39.736 27.1772ZM38.9954 33.4272C39.0057 34.1522 38.8679 34.8716 38.5905 35.5416C38.313 36.2116 37.9018 36.8181 37.3818 37.3241C36.4784 38.2288 35.2888 38.7926 34.0157 38.9194C32.7427 39.0462 31.465 38.7281 30.4005 38.0193C29.336 37.3105 28.5506 36.255 28.1783 35.0326C27.8059 33.8103 27.8696 32.4968 28.3585 31.3161C28.8474 30.1354 29.7313 29.1606 30.8593 28.5579C31.9874 27.9552 33.2899 27.7618 34.5448 28.0109C35.7996 28.2599 36.9291 28.9359 37.7407 29.9236C38.5523 30.9113 38.9957 32.1495 38.9954 33.4272ZM70.33 26.2272V28.1928C70.33 28.2844 70.3119 28.375 70.2767 28.4595C70.2414 28.544 70.1898 28.6207 70.1247 28.6852C70.0597 28.7497 69.9825 28.8007 69.8976 28.8353C69.8127 28.8698 69.7218 28.8873 69.6301 28.8866H67.3354V39.6532C67.3354 40.0985 67.1586 40.5256 66.8439 40.841C66.5291 41.1563 66.1019 41.3342 65.6561 41.3355H64.2917C64.2025 41.3342 64.1173 41.2978 64.0547 41.2343C63.992 41.1707 63.9569 41.0851 63.9569 40.996V28.8866H63.0745C62.8609 28.8866 62.6559 28.8025 62.504 28.6525C62.352 28.5026 62.2655 28.2988 62.263 28.0855V26.3439C62.263 26.2374 62.284 26.1321 62.3248 26.0337C62.3655 25.9354 62.4253 25.8461 62.5007 25.7708C62.576 25.6956 62.6655 25.6359 62.7639 25.5951C62.8624 25.5544 62.9679 25.5335 63.0745 25.5335H63.9778V17.0553C63.9778 16.8278 64.0679 16.6094 64.2286 16.448C64.3892 16.2866 64.6073 16.1952 64.8352 16.1939H65.6571C66.103 16.1953 66.5301 16.3731 66.8449 16.6884C67.1597 17.0038 67.3364 17.4309 67.3364 17.8762V25.5522H69.6312C69.8129 25.5508 69.988 25.6205 70.1189 25.7465C70.2497 25.8725 70.3259 26.0447 70.3311 26.2262L70.33 26.2272ZM101.083 13.3918C100.768 13.0764 100.591 12.6492 100.591 12.2038C100.591 11.7584 100.768 11.3311 101.083 11.0157L102.052 10.048C102.372 9.75893 102.792 9.60383 103.224 9.6148C103.655 9.62577 104.066 9.80197 104.372 10.107C104.677 10.412 104.854 10.8225 104.865 11.2538C104.876 11.685 104.72 12.1039 104.431 12.4241L103.457 13.3918C103.303 13.5519 103.119 13.6793 102.915 13.7663C102.711 13.8533 102.491 13.8982 102.27 13.8982C102.048 13.8982 101.828 13.8533 101.624 13.7663C101.42 13.6793 101.236 13.5519 101.083 13.3918ZM134.909 20.4293V21.797C134.885 22.2263 134.698 22.6302 134.385 22.9256C134.072 23.2211 133.658 23.3857 133.227 23.3857C132.797 23.3857 132.382 23.2211 132.07 22.9256C131.757 22.6302 131.569 22.2263 131.545 21.797V20.4303C131.569 20.001 131.757 19.5972 132.07 19.3017C132.382 19.0062 132.797 18.8416 133.227 18.8416C133.658 18.8416 134.072 19.0062 134.385 19.3017C134.698 19.5972 134.885 20 134.909 20.4293ZM134.909 27.2137V40.9272C134.909 41.0361 134.866 41.1404 134.789 41.2174C134.712 41.2944 134.607 41.3376 134.498 41.3376H133.246C132.795 41.3363 132.362 41.1565 132.043 40.8376C131.723 40.5187 131.543 40.0865 131.542 39.6355V27.2095C131.566 26.7802 131.754 26.3763 132.066 26.0809C132.379 25.7854 132.794 25.6208 133.224 25.6208C133.655 25.6208 134.069 25.7854 134.382 26.0809C134.694 26.3763 134.882 26.7802 134.906 27.2095L134.909 27.2137ZM141.576 17.8803V39.7397C141.575 40.1695 141.404 40.5814 141.099 40.8853C140.795 41.1893 140.383 41.3605 139.952 41.3616H138.622C138.568 41.3616 138.515 41.351 138.465 41.3303C138.415 41.3097 138.37 41.2795 138.332 41.2414C138.294 41.2033 138.263 41.158 138.243 41.1082C138.222 41.0584 138.211 41.0051 138.211 40.9512V17.8762C138.199 17.6477 138.233 17.4191 138.312 17.2042C138.39 16.9894 138.512 16.7928 138.67 16.6266C138.827 16.4604 139.017 16.328 139.227 16.2375C139.438 16.147 139.664 16.1003 139.893 16.1003C140.122 16.1003 140.349 16.147 140.56 16.2375C140.77 16.328 140.96 16.4604 141.117 16.6266C141.275 16.7928 141.396 16.9894 141.475 17.2042C141.554 17.4191 141.588 17.6477 141.575 17.8762L141.576 17.8803ZM6.33193 21.5751C4.50239 23.4065 3.43787 25.8635 3.35384 28.4491C3.26981 31.0346 4.17254 33.5555 5.87932 35.5014C7.58609 37.4474 9.96943 38.6731 12.5469 38.9304C15.1245 39.1878 17.7036 38.4576 19.7624 36.8876C20.015 36.6869 20.3206 36.5637 20.6419 36.5328C20.9633 36.502 21.2867 36.565 21.573 36.714C21.8593 36.8631 22.0961 37.0919 22.2548 37.3727C22.4135 37.6534 22.4872 37.9742 22.467 38.296C22.4543 38.5269 22.3926 38.7524 22.286 38.9577C22.1794 39.163 22.0302 39.3432 21.8485 39.4866C19.4936 41.3537 16.5648 42.3506 13.5583 42.3085C11.7683 42.3241 9.99297 41.9856 8.33474 41.3124C6.67651 40.6392 5.16822 39.6446 3.89694 38.3861C2.62567 37.1276 1.61659 35.6302 0.927951 33.9801C0.239315 32.3301 -0.115234 30.5601 -0.115234 28.7725C-0.115234 26.9849 0.239315 25.215 0.927951 23.5649C1.61659 21.9149 2.62567 20.4174 3.89694 19.1589C5.16822 17.9004 6.67651 16.9059 8.33474 16.2327C9.99297 15.5594 11.7683 15.2209 13.5583 15.2366C16.5666 15.1932 19.4974 16.1902 21.8537 18.0585C22.0352 18.202 22.1841 18.3824 22.2908 18.5876C22.3974 18.7928 22.4592 19.0183 22.4723 19.2491C22.4935 19.5713 22.4206 19.8928 22.2623 20.1744C22.1041 20.456 21.8673 20.6856 21.5808 20.8353C21.2943 20.985 20.9704 21.0484 20.6485 21.0178C20.3266 20.9871 20.0206 20.8637 19.7676 20.6626C17.7995 19.1608 15.3515 18.4253 12.8803 18.5932C10.4091 18.7611 8.08347 19.821 6.33714 21.5751H6.33193ZM111.509 40.9657L103.137 16.1741C103.008 15.7878 102.759 15.4522 102.428 15.2147C102.096 14.9773 101.698 14.8501 101.29 14.8512H100.78C100.372 14.8509 99.9747 14.9784 99.6433 15.2157C99.3119 15.4531 99.0634 15.7883 98.9329 16.1741L90.5258 40.9657C90.5123 41.007 90.5085 41.0508 90.5146 41.0938C90.5208 41.1368 90.5367 41.1778 90.5613 41.2137C90.587 41.2485 90.6206 41.2768 90.6594 41.2962C90.6982 41.3156 90.7411 41.3255 90.7845 41.3251H92.6443C93.0082 41.3247 93.3627 41.2093 93.6571 40.9954C93.9514 40.7815 94.1705 40.4802 94.2829 40.1345L96.3127 33.9272H105.446L107.409 40.1189C107.518 40.4682 107.737 40.7734 108.033 40.9895C108.329 41.2057 108.686 41.3215 109.053 41.3199H111.295C111.513 41.3262 111.58 41.3314 111.509 40.9657ZM104.462 30.5782H97.2723C97.6729 29.3626 100.225 21.6095 100.905 19.4918C100.908 19.4806 100.914 19.4707 100.924 19.4641C100.933 19.4575 100.945 19.4548 100.956 19.4564C100.968 19.4561 100.98 19.46 100.989 19.4675C100.999 19.4749 101.005 19.4853 101.008 19.497C101.671 21.6262 104.086 29.373 104.461 30.5793L104.462 30.5782ZM57.7017 26.9262C59.1967 28.5202 60.0073 30.6354 59.9599 32.8189V41.0574C59.955 41.1178 59.9377 41.1764 59.9091 41.2298C59.8805 41.2832 59.8412 41.3301 59.7937 41.3676C59.7461 41.4052 59.6913 41.4325 59.6327 41.448C59.5741 41.4634 59.5129 41.4666 59.453 41.4574H58.3922C57.5045 41.4574 56.8088 40.9512 56.8088 40.3626V32.8189C56.8361 31.507 56.3496 30.2363 55.4528 29.2772C55.0454 28.82 54.5456 28.4541 53.9864 28.2035C53.4272 27.9529 52.8213 27.8234 52.2084 27.8234C51.5955 27.8234 50.9895 27.9529 50.4304 28.2035C49.8712 28.4541 49.3714 28.82 48.9639 29.2772C48.0668 30.236 47.5802 31.5069 47.608 32.8189V40.3637C47.608 40.9772 46.9133 41.4585 46.0194 41.4585H44.9471C44.8303 41.4683 44.7143 41.4319 44.6241 41.3571C44.5339 41.2822 44.4769 41.175 44.4652 41.0585V32.8189C44.4195 30.6349 45.2316 28.5198 46.7276 26.9262C47.4145 26.1531 48.2578 25.5343 49.2017 25.1105C50.1456 24.6867 51.1688 24.4676 52.2037 24.4676C53.2386 24.4676 54.2618 24.6867 55.2057 25.1105C56.1496 25.5343 56.9929 26.1531 57.6798 26.9262H57.7017ZM86.4036 26.348C84.8838 25.2146 83.034 24.6094 81.1372 24.6251C79.9742 24.6097 78.8202 24.8309 77.7455 25.2752C76.6708 25.7195 75.6979 26.3776 74.8861 27.2095C73.9114 28.1602 73.174 29.3263 72.7333 30.6139C72.2927 31.9014 72.1612 33.2744 72.3494 34.622C72.5141 36.1795 73.1304 37.6551 74.1226 38.8678C75.4086 40.5074 77.2281 41.6464 79.2662 42.0878C81.3044 42.5291 83.4329 42.2449 85.2834 41.2845C85.4102 41.2175 85.5506 41.1804 85.694 41.1761C85.8374 41.1717 85.9799 41.2003 86.1105 41.2595C86.3329 41.3421 86.568 41.3851 86.8052 41.3866H88.0485C88.0982 41.3892 88.1479 41.382 88.1947 41.3653C88.2416 41.3487 88.2846 41.3229 88.3214 41.2894C88.3582 41.256 88.3879 41.2156 88.409 41.1706C88.43 41.1256 88.4418 41.0768 88.4438 41.0272V30.4168C88.4451 29.6268 88.2614 28.8474 87.9073 28.141C87.5532 27.4345 87.0376 26.8205 86.4036 26.348ZM85.0998 29.6314V36.8876C85.1025 37.0104 85.0795 37.1324 85.0323 37.2457C84.985 37.3591 84.9146 37.4614 84.8255 37.546C83.8198 38.4775 82.493 38.9857 81.1215 38.9647C80.243 38.9751 79.3751 38.7725 78.5921 38.3745C77.8091 37.9765 77.1345 37.3948 76.6259 36.6793C76.1141 36.0238 75.7865 35.2439 75.6768 34.4199C75.514 33.5474 75.5675 32.6484 75.8328 31.8013C76.0981 30.9543 76.567 30.1849 77.1986 29.5605C77.7013 29.0403 78.3056 28.6288 78.9742 28.3516C79.6428 28.0744 80.3612 27.9374 81.085 27.9491C81.4382 27.9501 81.7909 27.9755 82.1406 28.0251C83.2933 28.1679 84.3489 28.7419 85.0946 29.6314H85.0998ZM126.196 26.3178C124.675 25.1833 122.823 24.5781 120.925 24.5949C119.763 24.5799 118.609 24.8013 117.536 25.2456C116.462 25.6899 115.49 26.3478 114.679 27.1793C113.706 28.129 112.969 29.2936 112.528 30.5794C112.088 31.8652 111.956 33.2363 112.142 34.5824C112.305 36.1463 112.924 37.6281 113.923 38.8439C115.183 40.453 116.958 41.582 118.951 42.0428C120.944 42.5036 123.035 42.2683 124.875 41.3762C124.808 42.065 124.615 42.7357 124.306 43.3553C123.921 44.1081 123.382 44.7713 122.722 45.3013C122.063 45.8314 121.299 46.2165 120.48 46.4314C118.654 46.9178 116.712 46.7083 115.031 45.8439C114.314 45.4904 113.655 45.0291 113.078 44.4762C112.995 44.3964 112.884 44.3519 112.769 44.3519C112.653 44.3519 112.542 44.3964 112.459 44.4762L111.841 45.0741C111.643 45.2639 111.491 45.4949 111.393 45.7506C111.296 46.0064 111.256 46.2805 111.278 46.5532C111.297 46.8183 111.374 47.076 111.503 47.308C111.633 47.5401 111.812 47.7408 112.029 47.896C112.512 48.2386 113.02 48.5437 113.55 48.8085C115.09 49.584 116.788 49.992 118.512 50.0001C119.481 49.999 120.445 49.8662 121.379 49.6053C122.641 49.2656 123.817 48.6641 124.831 47.8399C125.845 47.0157 126.674 45.9874 127.263 44.822C127.849 43.6474 128.167 42.3585 128.197 41.047V30.4064C128.205 29.6159 128.028 28.8345 127.68 28.1246C127.332 27.4146 126.823 26.7959 126.192 26.3178H126.196ZM117.024 29.5303C117.529 29.0103 118.135 28.599 118.805 28.3218C119.475 28.0447 120.195 27.9075 120.921 27.9189C121.538 27.9244 122.152 28.0009 122.752 28.147C123.623 28.3678 124.391 28.8831 124.924 29.6053V36.8647C124.926 36.9877 124.902 37.1098 124.854 37.2231C124.806 37.3365 124.735 37.4386 124.645 37.523C123.638 38.4544 122.309 38.9625 120.936 38.9418C120.059 38.9513 119.193 38.7484 118.412 38.3504C117.631 37.9523 116.958 37.371 116.451 36.6564C115.934 36.0014 115.601 35.2203 115.487 34.3939C115.327 33.5193 115.383 32.6187 115.651 31.7707C115.919 30.9228 116.39 30.1532 117.025 29.5293L117.024 29.5303Z" fill="white"/>
<path d="M167.887 37.9958L156.205 8.82912C156.162 8.72555 156.146 8.61306 156.157 8.50165C156.169 8.39024 156.208 8.28338 156.27 8.19058C156.333 8.09778 156.418 8.02192 156.517 7.96976C156.616 7.9176 156.727 7.89076 156.839 7.89162H163.074C164.994 7.89118 166.869 8.46544 168.458 9.54021C170.047 10.615 171.277 12.1409 171.988 13.9208L182.948 41.2822C182.989 41.3859 183.005 41.498 182.993 41.6089C182.981 41.7198 182.942 41.8261 182.879 41.9185C182.817 42.0109 182.732 42.0867 182.634 42.1392C182.535 42.1917 182.425 42.2193 182.314 42.2197H174.13C172.786 42.2196 171.472 41.8171 170.36 41.0642C169.247 40.3112 168.386 39.2424 167.887 37.9958ZM162.722 35.6854C162.722 34.3916 162.338 33.1268 161.618 32.051C160.898 30.9752 159.875 30.1368 158.678 29.6417C157.481 29.1465 156.164 29.017 154.894 29.2694C153.623 29.5218 152.456 30.1448 151.54 31.0597C150.624 31.9746 150 33.1402 149.747 34.4092C149.494 35.6781 149.624 36.9934 150.12 38.1888C150.615 39.3841 151.455 40.4058 152.532 41.1246C153.61 41.8434 154.876 42.227 156.172 42.227C157.909 42.227 159.575 41.5378 160.803 40.311C162.032 39.0842 162.722 37.4203 162.722 35.6854Z" fill="white"/>
<path d="M173.097 6.86042C174.994 6.86042 176.532 5.32466 176.532 3.43021C176.532 1.53576 174.994 0 173.097 0C171.2 0 169.662 1.53576 169.662 3.43021C169.662 5.32466 171.2 6.86042 173.097 6.86042Z" fill="white"/>
</g>
<defs>
<clipPath id="clip0_429_73">
<rect width="183" height="50" fill="white"/>
</clipPath>
</defs>
</svg>
