<svg width="146" height="50" viewBox="0 0 146 50" fill="none" xmlns="http://www.w3.org/2000/svg">
<g opacity="0.8" clip-path="url(#clip0_429_78)">
<path fill-rule="evenodd" clip-rule="evenodd" d="M25.03 38.3618C22.1398 38.8698 18.8214 36.4106 18.3144 33.5482C17.8598 30.9784 17.2875 28.4198 16.5616 25.9099C15.1175 27.8387 14.2701 29.5163 13.4227 31.9025C12.362 34.8885 10.5045 37.3608 7.21964 37.9194C5.98314 38.1294 4.76911 38.0263 3.54009 37.8426L0.462891 37.3815L1.33835 34.3899C4.35569 24.0636 8.02588 13.0401 13.2001 3.59104C14.3505 1.48979 16.7281 -0.292797 19.2086 0.704403C21.5693 1.65474 22.007 4.26957 21.5768 6.50016C21.5113 6.83943 21.4402 7.1787 21.3635 7.51422C24.5811 4.72319 28.0642 2.28081 31.985 0.511337C33.895 -0.350903 36.1173 -0.193452 37.5015 1.52916C39.0692 3.48231 38.624 6.39144 36.7271 7.95284C35.8666 8.66138 35.0435 9.35676 34.2746 10.0541C33.244 11.025 34.7386 11.4262 35.8591 10.7195C37.4716 9.82537 39.2131 9.20309 40.5918 8.88444C43.8804 8.12154 47.5338 8.30149 50.2444 10.3971C50.4427 9.79537 50.6409 9.19746 50.8392 8.60327C51.5707 6.40643 52.3207 4.21522 53.069 2.02213L53.705 0.158942L55.6692 0.183311C59.1934 0.226423 62.7196 0.398867 66.2458 0.355755C70.4772 0.305146 76.5362 0.897467 77.4322 6.07841C77.6005 7.05124 77.6679 7.97533 77.6417 8.85819C78.7024 8.65388 79.8172 8.80196 80.8705 9.45806C82.5858 10.5265 83.19 12.4778 82.915 14.3953C82.5558 16.2397 83.9944 16.1329 84.5181 14.4346C85.143 12.9782 85.8968 11.6436 86.821 10.7664C88.4652 9.20496 90.9027 8.18528 92.9918 9.59111C93.0768 9.64731 93.159 9.70731 93.2357 9.76917C93.9741 8.23963 94.7484 6.72883 95.5625 5.23679C97.1057 2.41201 100.137 -0.230941 103.565 1.00806C106.424 2.039 107.413 5.10182 107.226 7.89661C107.123 9.43741 107.027 10.9781 106.938 12.5208C108.619 9.79352 110.268 7.04374 111.932 4.30519C112.481 3.40359 113.23 2.62382 114.076 1.99964C117.357 -0.427755 121.321 -0.154087 122.93 2.45138C124.826 0.256414 128.471 -0.238437 130.686 1.80095C132.171 3.16742 132.44 5.15806 131.849 7.02125C130.626 10.8788 129.296 14.9389 127.651 18.819C128.85 19.0907 130.31 19.7731 131.729 20.6109C132.598 19.6943 133.912 19.3963 135.214 19.43C137.875 19.4994 142.757 22.8452 144.594 24.7815C145.507 25.7431 146.032 26.9578 145.91 28.298C145.598 31.7169 141.644 33.299 139.004 34.6317C136.699 35.7976 134.318 37.1641 131.915 38.0825C131.321 38.3094 130.728 38.3824 130.173 38.3244C130.815 39.2503 131.192 40.3712 131.192 41.5765C131.192 46.0714 127.523 49.7508 123.035 49.7508H28.4439C25.3031 49.7508 22.7347 47.1754 22.7347 44.0301C22.7329 41.8351 23.6102 39.8351 25.03 38.3618Z" fill="white"/>
<path fill-rule="evenodd" clip-rule="evenodd" d="M116.156 29.6062C117.886 27.9586 120.74 29.52 120.048 31.1227C119.92 33.0308 118.664 34.1574 117.02 34.8509C115.895 35.1545 114.726 35.6738 113.948 34.6784C113.475 32.9427 114.859 30.9483 116.156 29.6062ZM86.2215 35.76C89.5101 25.6174 92.7534 15.4729 97.9447 6.54505C100.453 1.64715 104.866 2.8168 104.52 7.7147C104.303 11.1392 104.131 14.607 103.914 18.0316C103.828 19.9829 105.558 19.7223 106.465 18.3783C109.062 14.1309 111.657 9.92656 114.251 5.72217C116.067 2.68746 122.254 1.3435 120.784 6.58816C119.182 15.6473 116.242 24.2304 112.349 32.5959C111.485 35.1527 108.153 36.1067 108.671 33.1152C109.838 28.6071 111.05 24.056 112.261 19.5911C112.91 16.8601 111.136 18.2903 109.493 21.4543C107.416 25.1826 105.859 28.6071 103.306 32.4647C100.234 37.059 97.2489 36.8866 97.3366 31.8574C97.5538 28.6934 97.8116 25.5293 98.0722 22.3653C98.3753 18.8976 97.552 18.3334 96.1243 22.0617C91.9756 34.461 88.9901 36.238 86.2215 35.76ZM58.104 21.37C57.2397 22.1929 56.5906 24.4909 56.1136 28.131C56.1136 29.3457 56.5457 29.8649 57.3688 29.9942C58.71 30.0373 60.4404 30.1236 61.7386 30.0373C67.8387 29.8199 70.7364 21.9323 64.8532 21.4543C62.4289 21.413 60.5264 21.413 58.104 21.37ZM62.8629 8.58256C61.8677 8.58256 60.8725 12.0934 60.7865 14.2603C60.5695 15.9941 62.2998 15.7767 63.555 15.8197C67.7938 15.9491 69.6982 14.5189 70.9946 12.1346C72.0327 9.70721 71.4266 8.53758 68.6581 8.53758C66.7126 8.53945 64.8083 8.58256 62.8629 8.58256ZM55.6385 2.90489C52.3517 12.5282 49.0631 22.8882 47.808 31.2969C47.4619 35.4151 48.7601 35.8481 51.3547 35.8481C53.9063 35.805 56.5027 35.7618 59.0973 35.7618C62.558 35.5013 65.8017 34.0711 68.6581 30.7778C69.1332 30.2585 69.5673 30.4741 69.5224 30.864C69.5224 34.6354 72.809 38.5792 79.2983 33.8555C80.7256 33.1189 81.1147 33.2052 81.1577 34.028C81.2007 34.5492 80.9856 35.1545 80.8117 35.6326C84.4014 35.9362 88.079 28.4797 92.0149 13.8722C92.2319 11.6623 90.7597 10.7513 88.6833 12.7457C86.0008 15.2593 84.8766 25.0569 82.2371 28.3504C78.6024 33.7243 75.0987 30.6484 75.7908 28.1779C77.3042 21.415 79.0776 20.2453 80.2037 14.1346C80.7237 11.0999 77.5642 10.5376 75.6617 13.4842C74.4945 15.6079 73.5854 17.906 72.9363 20.2472C72.072 22.4571 70.8169 22.2416 70.4707 20.9838C70.2968 19.8573 69.5616 18.9894 68.6544 18.2096C72.5902 15.4354 75.4897 12.0541 74.7545 6.5488C74.1915 3.90397 71.0769 2.90864 66.2768 3.0811C62.7319 3.03424 59.1852 2.94801 55.6385 2.90489ZM42.1418 24.8377C41.2775 24.534 39.1132 25.4018 37.6859 26.3541C35.1774 28.2604 35.3495 29.2576 35.6955 30.5584C36.2587 31.9455 39.0702 31.5988 41.1466 29.3888C43.1351 27.0476 43.3091 25.3568 42.1418 24.8377ZM38.2041 18.3353C37.641 19.5929 33.4452 18.3783 33.8792 16.6445C34.0962 13.3492 44.3472 8.75501 49.1493 13.0475C52.4808 16.8189 44.8243 27.1357 44.9104 34.3729C44.9533 35.1095 44.4352 35.4564 43.5691 35.4994C42.6599 35.4994 41.7527 35.4994 40.8436 35.4994C39.9793 35.5426 39.3302 34.9353 38.7672 34.0692C36.3877 36.2361 29.3372 37.1902 28.5142 33.3757C27.865 30.1254 27.779 27.4806 32.2349 24.056C34.8314 22.2791 38.032 21.7149 42.2278 20.9351C44.0012 20.1984 44.8673 17.4674 43.137 16.7307C41.1035 15.7785 39.5884 16.7757 38.2041 18.3353ZM3.94336 35.1545C7.18704 24.0579 10.7787 13.1787 15.5806 4.8993C16.9219 2.29758 19.6043 2.51501 18.9122 5.98272C18.5231 8.06335 17.9601 10.0578 17.2679 12.0071C16.8358 13.4804 17.9601 14.4777 19.9505 12.5282C24.7093 7.8459 28.9482 5.11673 33.101 2.993C35.7404 1.95268 36.4326 4.59751 35.0053 5.85338C29.0361 10.4477 23.8881 15.6061 25.9215 25.0551C26.3536 27.7862 26.6567 30.4741 26.3536 33.2052C25.3585 37.7563 21.2916 35.0683 20.9905 33.0758C20.3844 30.0842 19.7783 27.0514 18.8711 24.146C18.179 21.848 16.5777 21.3718 14.7613 23.7992C13.2479 25.6624 11.9067 27.3101 10.8684 30.9952C8.91925 35.5013 6.5398 35.5444 3.94336 35.1545ZM118.146 25.8349C118.059 27.3513 119.358 27.8292 121.043 25.6174C124.158 20.1122 126.841 13.5236 129.264 6.19828C130.301 2.77369 125.802 2.34069 124.678 4.68187C122.385 8.75501 120.265 16.472 118.146 25.8349Z" fill="#818181"/>
<path d="M123.083 46.8754L123.841 44.0713C123.942 43.702 124.073 43.3589 124.232 43.044C124.389 42.7273 124.568 42.4517 124.771 42.2156C124.974 41.9794 125.185 41.7938 125.412 41.6626C125.636 41.5314 125.866 41.4639 126.1 41.4621C126.166 41.4621 126.222 41.4639 126.27 41.4714C126.317 41.4751 126.36 41.4826 126.4 41.4883L126.699 40.4142C126.654 40.4087 126.602 40.4011 126.547 40.3974C126.493 40.3899 126.439 40.388 126.387 40.388C126.102 40.3899 125.833 40.4574 125.584 40.5886C125.333 40.7216 125.099 40.9016 124.888 41.1284C124.675 41.3571 124.488 41.6176 124.323 41.9082H124.284C124.344 41.6663 124.396 41.4321 124.443 41.2052C124.493 40.9785 124.539 40.7554 124.581 40.5324H123.627C123.584 40.731 123.538 40.9522 123.487 41.1959C123.436 41.4376 123.381 41.6963 123.319 41.9644C123.257 42.2362 123.188 42.508 123.113 42.7854L121.998 46.8736H123.083V46.8754ZM117.625 43.7563C117.737 43.3814 117.881 43.0422 118.056 42.7404C118.235 42.4387 118.432 42.18 118.651 41.9626C118.87 41.7488 119.101 41.582 119.34 41.4658C119.579 41.3496 119.817 41.2914 120.054 41.2914C120.269 41.2934 120.449 41.3346 120.595 41.4151C120.743 41.4958 120.857 41.6083 120.941 41.7488C121.025 41.8894 121.082 42.0506 121.111 42.2287C121.139 42.4105 121.145 42.5979 121.128 42.7966C121.104 43.0834 121.04 43.3796 120.938 43.6908C120.832 44 120.696 44.3018 120.524 44.5942C120.352 44.8866 120.148 45.151 119.914 45.3871C119.68 45.6233 119.42 45.8107 119.134 45.9513C118.85 46.0901 118.543 46.1631 118.215 46.1651C117.883 46.1651 117.634 46.0844 117.475 45.9269C117.316 45.7676 117.249 45.5389 117.273 45.2353C117.28 45.0666 117.299 44.9166 117.325 44.7854C117.351 44.6542 117.383 44.5324 117.419 44.4237L117.625 43.7563ZM118.286 37.5707L116.354 44.3975C116.309 44.5512 116.266 44.7161 116.23 44.8904C116.193 45.0647 116.168 45.2334 116.154 45.3927C116.126 45.7788 116.184 46.0938 116.332 46.3318C116.482 46.5717 116.699 46.7461 116.981 46.8567C117.264 46.9654 117.591 47.0198 117.967 47.0178C118.39 47.016 118.786 46.9523 119.155 46.8304C119.525 46.7086 119.864 46.5399 120.174 46.3243C120.483 46.1088 120.759 45.8595 121.009 45.5746C121.255 45.2897 121.465 44.986 121.643 44.6636C121.822 44.3375 121.964 44.0057 122.07 43.6683C122.174 43.329 122.241 42.9953 122.269 42.6673C122.293 42.3805 122.284 42.1069 122.238 41.835C122.191 41.567 122.099 41.3214 121.968 41.104C121.833 40.8885 121.652 40.7123 121.418 40.5867C121.186 40.4574 120.898 40.3899 120.552 40.388C120.266 40.388 119.987 40.4386 119.712 40.5342C119.435 40.6336 119.172 40.776 118.917 40.971C118.666 41.1622 118.434 41.4001 118.221 41.6851H118.195L119.377 37.5707H118.286ZM114.327 47.0066C114.491 47.0048 114.636 46.9654 114.766 46.8904C114.895 46.8136 114.998 46.7104 115.08 46.5812C115.16 46.4518 115.208 46.3056 115.224 46.1426C115.237 45.9926 115.217 45.8576 115.167 45.7413C115.118 45.6233 115.041 45.5296 114.937 45.4621C114.833 45.3946 114.705 45.359 114.557 45.3571C114.392 45.359 114.248 45.3984 114.117 45.4771C113.988 45.5558 113.883 45.6608 113.803 45.792C113.723 45.9251 113.675 46.0713 113.659 46.2344C113.646 46.3806 113.666 46.5118 113.717 46.628C113.765 46.7442 113.84 46.8361 113.942 46.9036C114.044 46.971 114.168 47.0066 114.311 47.0085H114.327V47.0066ZM104.85 46.8754L105.705 43.6908C105.798 43.3496 105.927 43.0347 106.094 42.7479C106.26 42.4574 106.448 42.2043 106.657 41.9851C106.864 41.7695 107.08 41.5988 107.299 41.4789C107.519 41.3571 107.733 41.2952 107.932 41.2934C108.197 41.2952 108.391 41.3496 108.518 41.4546C108.646 41.5595 108.728 41.6945 108.76 41.8594C108.793 42.0263 108.803 42.1987 108.784 42.3824C108.774 42.5042 108.756 42.6299 108.734 42.7536C108.711 42.8773 108.679 43.0141 108.641 43.1565L107.624 46.8773H108.67L109.543 43.627C109.641 43.2709 109.771 42.9522 109.936 42.6654C110.098 42.3787 110.282 42.1331 110.485 41.9288C110.686 41.7226 110.896 41.5688 111.111 41.4583C111.324 41.3496 111.53 41.2914 111.728 41.2914C111.964 41.2914 112.145 41.3364 112.28 41.4283C112.411 41.5183 112.501 41.6438 112.551 41.8088C112.598 41.9719 112.613 42.1668 112.592 42.3918C112.581 42.5249 112.561 42.6654 112.531 42.8079C112.501 42.9541 112.467 43.089 112.432 43.2165L111.446 46.8736H112.505L113.524 43.1265C113.556 43.0065 113.586 42.8848 113.612 42.7554C113.638 42.6261 113.659 42.5024 113.679 42.3805C113.698 42.2605 113.711 42.1518 113.721 42.0525C113.743 41.7563 113.719 41.4995 113.648 41.2877C113.577 41.0778 113.469 40.9053 113.332 40.7723C113.195 40.6391 113.036 40.5436 112.862 40.4799C112.684 40.418 112.503 40.388 112.317 40.388C111.844 40.3937 111.399 40.5192 110.987 40.7573C110.572 40.9953 110.206 41.3439 109.884 41.8032C109.89 41.5351 109.846 41.2914 109.753 41.0797C109.66 40.8678 109.512 40.6991 109.311 40.5773C109.108 40.4536 108.847 40.3899 108.526 40.388C108.104 40.388 107.693 40.4986 107.293 40.7216C106.895 40.9447 106.528 41.2784 106.192 41.7245H106.152L106.422 40.5324H105.467C105.413 40.7948 105.35 41.0778 105.277 41.3871C105.206 41.6945 105.12 42.0263 105.025 42.3805L103.798 46.8754H104.85ZM100.381 46.1556C100.078 46.1538 99.8239 46.0751 99.616 45.9232C99.4081 45.7695 99.2566 45.5614 99.1577 45.2934C99.0607 45.0272 99.0246 44.7179 99.0505 44.3712C99.0755 44.0788 99.1355 43.7845 99.2307 43.4883C99.324 43.194 99.4497 42.911 99.6012 42.6448C99.7546 42.3768 99.932 42.1388 100.134 41.9307C100.336 41.7207 100.56 41.5576 100.802 41.4339C101.045 41.3139 101.303 41.2521 101.576 41.2502C101.859 41.2521 102.092 41.3121 102.272 41.4226C102.456 41.5351 102.592 41.6813 102.691 41.8594C102.786 42.0394 102.852 42.2287 102.885 42.433C102.918 42.6354 102.925 42.8304 102.907 43.0178C102.882 43.3177 102.819 43.6139 102.721 43.9119C102.624 44.2118 102.496 44.493 102.337 44.7611C102.18 45.0273 102.001 45.2652 101.795 45.4752C101.594 45.6833 101.373 45.8463 101.135 45.9663C100.898 46.0863 100.65 46.1481 100.394 46.1501H100.381V46.1556ZM100.19 47.0198C100.615 47.0178 101.015 46.941 101.389 46.7929C101.762 46.6449 102.104 46.4387 102.41 46.18C102.717 45.9195 102.987 45.6195 103.219 45.2802C103.451 44.941 103.632 44.5792 103.772 44.195C103.911 43.8107 103.999 43.4189 104.032 43.0235C104.061 42.6842 104.039 42.3618 103.966 42.0469C103.894 41.7338 103.767 41.4526 103.586 41.2034C103.404 40.954 103.161 40.7573 102.861 40.6111C102.56 40.4667 102.195 40.3899 101.769 40.388C101.358 40.3899 100.966 40.463 100.598 40.6036C100.23 40.7479 99.8886 40.9447 99.58 41.1996C99.2714 41.4526 98.9988 41.7507 98.765 42.0881C98.5293 42.4274 98.3418 42.791 98.1976 43.1865C98.0535 43.5801 97.9638 43.9888 97.9269 44.4105C97.8964 44.7704 97.9232 45.1078 98.0054 45.4189C98.0876 45.7338 98.2244 46.0113 98.4148 46.2494C98.6042 46.4893 98.8491 46.6749 99.1448 46.8098C99.4377 46.9448 99.7824 47.016 100.179 47.0178H100.19V47.0198ZM97.2181 45.762C97.1035 45.8163 96.9723 45.8688 96.8245 45.9232C96.6766 45.9776 96.5084 46.0207 96.3255 46.0582C96.1425 46.0956 95.942 46.1125 95.723 46.1144C95.3792 46.1125 95.0946 46.0432 94.8756 45.9026C94.6548 45.7638 94.494 45.5671 94.397 45.3122C94.3018 45.0572 94.2676 44.7573 94.2953 44.4105C94.3203 44.1088 94.3877 43.8107 94.4903 43.5126C94.5947 43.2147 94.7352 42.9335 94.9089 42.6673C95.0854 42.4012 95.2887 42.165 95.5243 41.9588C95.7627 41.7507 96.0224 41.5895 96.3107 41.4714C96.5962 41.3533 96.9067 41.2934 97.2366 41.2896C97.4722 41.2914 97.6764 41.3159 97.8502 41.3646C98.0239 41.4096 98.1699 41.4658 98.29 41.5258L98.6753 40.6748C98.6116 40.6336 98.5136 40.5923 98.387 40.5492C98.2577 40.5061 98.108 40.4667 97.9343 40.4349C97.7605 40.4049 97.5766 40.3899 97.3789 40.3862C96.9224 40.388 96.49 40.4649 96.0825 40.6111C95.674 40.7591 95.3026 40.9672 94.9616 41.2296C94.6215 41.4939 94.324 41.8013 94.0671 42.1538C93.8093 42.5024 93.6032 42.8828 93.4498 43.2896C93.2927 43.6983 93.1976 44.12 93.1588 44.5549C93.1301 44.896 93.1532 45.2128 93.2299 45.5071C93.3048 45.8013 93.4332 46.0619 93.6171 46.2868C93.7982 46.5099 94.0357 46.6861 94.3314 46.8136C94.6271 46.9391 94.9782 47.0029 95.3866 47.0066C95.6703 47.0048 95.9328 46.9823 96.1721 46.9429C96.4114 46.9016 96.623 46.8511 96.8041 46.7892C96.988 46.7311 97.1368 46.6711 97.2514 46.613L97.2181 45.762ZM91.4056 47.0066C91.5702 47.0048 91.7143 46.9654 91.8452 46.8904C91.9743 46.8136 92.079 46.7104 92.1595 46.5812C92.2399 46.4518 92.2866 46.3056 92.3036 46.1426C92.3166 45.9926 92.2961 45.8576 92.2455 45.7413C92.1969 45.6233 92.1202 45.5296 92.0154 45.4621C91.9126 45.3946 91.7835 45.359 91.6357 45.3571C91.4711 45.359 91.327 45.3984 91.1961 45.4771C91.067 45.5558 90.9623 45.6608 90.8818 45.792C90.8014 45.9251 90.7547 46.0713 90.7378 46.2344C90.7247 46.3806 90.7452 46.5118 90.7958 46.628C90.8444 46.7442 90.9192 46.8361 91.0222 46.9036C91.125 46.971 91.2485 47.0066 91.3925 47.0085H91.4056V47.0066ZM82.1983 46.8754L82.9766 43.9926C83.0887 43.5689 83.2365 43.1978 83.4236 42.8773C83.6088 42.5567 83.8108 42.3018 84.0315 42.1218C84.2523 41.94 84.4711 41.8463 84.6862 41.8444C84.8396 41.8463 84.9557 41.8819 85.0379 41.9494C85.1203 42.0169 85.1745 42.1106 85.2026 42.2287C85.2287 42.3468 85.2381 42.4799 85.2231 42.6299C85.2138 42.7404 85.1951 42.8585 85.1708 42.9785C85.1446 43.1003 85.1146 43.2259 85.0847 43.3496L84.1232 46.8754H85.9415L86.7197 43.9794C86.8412 43.5446 86.9928 43.1659 87.1761 42.8473C87.3576 42.5286 87.5539 42.2812 87.7672 42.1068C87.9786 41.9326 88.19 41.8444 88.4014 41.8426C88.5454 41.8426 88.6596 41.8744 88.7493 41.9401C88.8353 42.0038 88.8971 42.0938 88.9345 42.2062C88.9682 42.3205 88.9794 42.4499 88.9663 42.6017C88.9551 42.7254 88.9364 42.8548 88.9083 42.9878C88.8802 43.119 88.8466 43.2484 88.811 43.3739L87.8776 46.8736H89.7089L90.7134 43.1528C90.7397 43.0403 90.7677 42.9166 90.7939 42.7798C90.8201 42.6448 90.8444 42.5117 90.8668 42.3824C90.8893 42.2512 90.9024 42.1425 90.9099 42.0525C90.9398 41.687 90.9024 41.3777 90.8033 41.1209C90.7023 40.8622 90.5414 40.6673 90.3206 40.5304C90.1018 40.3937 89.8287 40.3243 89.4994 40.3224C89.2207 40.3224 88.9439 40.3655 88.6707 40.4555C88.3995 40.5436 88.1376 40.6786 87.887 40.8566C87.6363 41.0384 87.4043 41.2652 87.1874 41.5408C87.1854 41.3983 87.1611 41.254 87.1069 41.1134C87.0526 40.971 86.9721 40.8398 86.86 40.7198C86.7477 40.6017 86.6018 40.5061 86.4222 40.433C86.2426 40.3599 86.0256 40.3243 85.7712 40.3205C85.3578 40.3187 84.9557 40.4142 84.5684 40.6073C84.1793 40.8023 83.8183 41.1022 83.4872 41.5145H83.461L83.6668 40.4667H82.0449C81.9832 40.7554 81.9121 41.0722 81.8317 41.4189C81.7494 41.7657 81.6558 42.1443 81.5436 42.5492L80.3838 46.8736H82.1983V46.8754ZM79.325 40.4667L78.5132 43.4414C78.3972 43.8669 78.2438 44.2325 78.0605 44.5362C77.8734 44.8416 77.6714 45.076 77.4525 45.239C77.2337 45.4002 77.0148 45.4846 76.7996 45.4864C76.6426 45.4846 76.5209 45.4509 76.433 45.3852C76.3451 45.3196 76.2834 45.2315 76.2497 45.1228C76.2179 45.0123 76.2085 44.8885 76.2198 44.7517C76.2291 44.6317 76.2496 44.4987 76.2796 44.3505C76.3095 44.2043 76.3433 44.0525 76.3825 43.9007L77.3235 40.4667H75.4397L74.4595 44.0451C74.3959 44.2681 74.3454 44.478 74.3061 44.6749C74.2705 44.8716 74.2444 45.0553 74.2294 45.2259C74.1976 45.6326 74.235 45.9682 74.3435 46.2325C74.452 46.4987 74.6222 46.6954 74.8561 46.8267C75.0917 46.956 75.3798 47.0216 75.7259 47.0216C76.1132 47.0235 76.5023 46.9298 76.8913 46.7404C77.2823 46.5512 77.6583 46.2475 78.0231 45.8295L78.0474 45.8426L77.8434 46.8773H79.5046C79.5738 46.5887 79.6524 46.27 79.7365 45.9251C79.8226 45.5783 79.9199 45.1997 80.0322 44.7929L81.2051 40.4686H79.325V40.4667ZM69.7735 43.6513C69.882 43.2784 70.0261 42.9598 70.2094 42.6898C70.3909 42.4237 70.5929 42.2156 70.8136 42.0731C71.0381 41.9288 71.2625 41.8576 71.4926 41.8557C71.6835 41.8576 71.8368 41.9063 71.9528 42.0019C72.0689 42.0956 72.1493 42.2268 72.1942 42.3899C72.2409 42.5567 72.2541 42.7441 72.2353 42.956C72.2166 43.1809 72.1661 43.4152 72.0875 43.657C72.009 43.8988 71.9061 44.135 71.7751 44.3655C71.6479 44.5942 71.4964 44.8004 71.3281 44.9841C71.1579 45.1697 70.9726 45.3159 70.7744 45.4246C70.5741 45.5314 70.3628 45.5876 70.1439 45.5914C69.9194 45.5914 69.7529 45.5296 69.6389 45.4096C69.5248 45.2897 69.4742 45.1135 69.4855 44.8829C69.4892 44.7517 69.5042 44.6279 69.5303 44.5099C69.5528 44.3918 69.5809 44.2812 69.6108 44.1763L69.7735 43.6513ZM69.5902 37.5707L67.7533 44.0581C67.6971 44.2475 67.6466 44.4405 67.6036 44.6374C67.5587 44.8323 67.5287 45.0291 67.5119 45.224C67.4633 45.7976 67.6167 46.24 67.9702 46.5492C68.3238 46.8604 68.8794 47.0141 69.637 47.0198C70.2132 47.016 70.7351 46.9279 71.2046 46.7554C71.6741 46.583 72.0912 46.3468 72.4542 46.0469C72.8152 45.747 73.1239 45.4077 73.3783 45.0272C73.6326 44.6449 73.8329 44.2438 73.9787 43.822C74.1228 43.4002 74.2126 42.9803 74.2482 42.5642C74.2725 42.2755 74.2593 41.9981 74.2013 41.732C74.1471 41.4658 74.0499 41.2277 73.9114 41.0159C73.7692 40.8041 73.584 40.6373 73.3502 40.5136C73.1164 40.3899 72.8339 40.3262 72.501 40.3224C72.2391 40.3224 71.9828 40.3617 71.7358 40.4367C71.4871 40.5079 71.257 40.6167 71.0381 40.7516C70.8193 40.8885 70.6247 41.0534 70.4507 41.2409H70.4245L71.4908 37.5707H69.5902ZM65.2298 43.284C65.0876 43.807 64.9174 44.2306 64.7191 44.5567C64.5226 44.8829 64.3188 45.1228 64.1055 45.2727C63.8922 45.4264 63.6921 45.4996 63.5013 45.4977C63.3274 45.4958 63.187 45.4527 63.0805 45.3627C62.9719 45.2727 62.8971 45.151 62.8541 44.9916C62.8129 44.8323 62.7998 44.6486 62.8185 44.4368C62.8391 44.1968 62.8933 43.9494 62.9831 43.6982C63.071 43.4489 63.187 43.2072 63.331 42.9747C63.4751 42.7423 63.6397 42.5361 63.8305 42.3524C64.0176 42.1668 64.2215 42.0226 64.4422 41.9138C64.663 41.8069 64.8949 41.7526 65.1363 41.7507C65.2335 41.7507 65.327 41.7582 65.4168 41.7657C65.5048 41.777 65.5852 41.7901 65.6562 41.8032L65.2298 43.284ZM66.4064 46.8754C66.4177 46.673 66.4382 46.45 66.4719 46.2025C66.5037 45.9588 66.543 45.7039 66.5897 45.4434C66.6346 45.1828 66.6852 44.9279 66.7413 44.6786C66.7973 44.4293 66.8534 44.2025 66.9096 43.9926L67.858 40.6373C67.6821 40.5811 67.482 40.5286 67.2575 40.4799C67.0312 40.4311 66.7917 40.3937 66.5393 40.3655C66.2886 40.3374 66.0342 40.3224 65.7797 40.3224C65.1512 40.3243 64.5844 40.4124 64.0774 40.5811C63.5686 40.7498 63.1216 40.9785 62.7343 41.2727C62.3471 41.567 62.016 41.9044 61.7467 42.285C61.4754 42.6654 61.264 43.0685 61.1106 43.4976C60.9591 43.9251 60.8637 44.3562 60.8282 44.7929C60.7926 45.2409 60.8431 45.6308 60.9759 45.9626C61.1087 46.2963 61.3126 46.5549 61.5858 46.7404C61.8607 46.9241 62.1899 47.0178 62.5754 47.0198C62.826 47.0216 63.0823 46.9785 63.3423 46.8886C63.6042 46.7986 63.8604 46.6505 64.1168 46.4425C64.3712 46.2343 64.6106 45.9551 64.8388 45.6046H64.865C64.8332 45.8332 64.7996 46.0563 64.7658 46.2681C64.7322 46.4818 64.7022 46.6861 64.6798 46.8754H66.4064ZM56.4565 46.8754L57.0214 44.8173L57.7846 44.135L58.6807 46.8736H60.787L59.3242 43.1115L62.2666 40.4649H59.9378L58.14 42.418C58.039 42.5286 57.9362 42.6467 57.8277 42.7666C57.721 42.8885 57.6126 43.014 57.504 43.1378H57.4778L59.0043 37.5688H57.1336L54.5895 46.8736H56.4565V46.8754ZM53.3156 47.0066C53.4803 47.0048 53.6244 46.9654 53.7553 46.8904C53.8843 46.8136 53.9891 46.7104 54.0696 46.5812C54.15 46.4518 54.1967 46.3056 54.2135 46.1426C54.2267 45.9926 54.206 45.8576 54.1556 45.7413C54.107 45.6233 54.0303 45.5296 53.9255 45.4621C53.8226 45.3946 53.6936 45.359 53.5457 45.3571C53.3811 45.359 53.2371 45.3984 53.1062 45.4771C52.9771 45.5558 52.8724 45.6608 52.7919 45.792C52.7115 45.9251 52.6646 46.0713 52.6478 46.2344C52.6366 46.3806 52.6553 46.5118 52.7059 46.628C52.7545 46.7442 52.8293 46.8361 52.9303 46.9036C53.0332 46.971 53.1567 47.0066 53.3007 47.0085H53.3156V47.0066ZM45.5862 40.5324L45.6442 46.8754H46.6505L48.7606 43.3889C48.8729 43.2034 48.972 43.0215 49.0656 42.8473C49.1591 42.6729 49.2489 42.4949 49.3406 42.315C49.4322 42.1331 49.5295 41.9419 49.6305 41.7376H49.6567C49.6324 42.0169 49.6155 42.2962 49.6081 42.5717C49.5987 42.8491 49.5987 43.1359 49.6062 43.4283L49.7353 46.8754H50.7417L54.3988 40.5324H53.3007L51.2804 44.1894C51.127 44.493 50.9923 44.7779 50.8745 45.0347C50.7585 45.2952 50.6482 45.5502 50.5452 45.8013H50.5191C50.5359 45.5914 50.549 45.3515 50.5509 45.0778C50.5565 44.8041 50.5565 44.4967 50.5527 44.15L50.4629 40.5324H49.5089L47.3296 44.2156C47.1463 44.5324 46.9836 44.8229 46.847 45.091C46.7067 45.359 46.5926 45.5951 46.5046 45.8013H46.4654C46.4841 45.6326 46.5028 45.4696 46.5178 45.3084C46.5327 45.1472 46.5459 44.9673 46.5589 44.7761C46.5702 44.583 46.5776 44.36 46.5833 44.0994L46.66 40.5342H45.5862V40.5324ZM36.8185 40.5324L36.8765 46.8754H37.8829L39.9929 43.3889C40.1052 43.2034 40.2044 43.0215 40.2979 42.8473C40.3914 42.6729 40.4812 42.4949 40.5729 42.315C40.6645 42.1331 40.7618 41.9419 40.8628 41.7376H40.889C40.8665 42.0169 40.8479 42.2962 40.8404 42.5717C40.8311 42.8491 40.8311 43.1359 40.8385 43.4283L40.9675 46.8754H41.974L45.631 40.5324H44.533L42.5146 44.1894C42.3612 44.493 42.2266 44.7779 42.1087 45.0347C41.9927 45.2952 41.8824 45.5502 41.7794 45.8013H41.7533C41.7701 45.5914 41.7813 45.3515 41.7851 45.0778C41.7907 44.8041 41.7907 44.4967 41.7869 44.15L41.6971 40.5324H40.7431L38.5638 44.2156C38.3805 44.5324 38.2178 44.8229 38.0812 45.091C37.9409 45.359 37.8268 45.5951 37.7388 45.8013H37.6995C37.7183 45.6326 37.737 45.4696 37.7519 45.3084C37.7669 45.1472 37.78 44.9673 37.7932 44.7761C37.8043 44.583 37.8118 44.36 37.8175 44.0994L37.8942 40.5342H36.8185V40.5324ZM28.0527 40.5324L28.1107 46.8754H29.1171L31.2271 43.3889C31.3394 43.2034 31.4385 43.0215 31.5321 42.8473C31.6256 42.6729 31.7172 42.4949 31.8071 42.315C31.8987 42.1331 31.996 41.9419 32.097 41.7376H32.1232C32.0989 42.0169 32.0821 42.2962 32.0746 42.5717C32.0633 42.8491 32.0652 43.1359 32.0727 43.4283L32.2017 46.8754H33.2082L36.8653 40.5324H35.7672L33.7488 44.1894C33.5954 44.493 33.4607 44.7779 33.3428 45.0347C33.2269 45.2952 33.1165 45.5502 33.0136 45.8013H32.9874C33.0043 45.5914 33.0155 45.3515 33.0192 45.0778C33.0249 44.8041 33.0249 44.4967 33.0211 44.15L32.9314 40.5324H31.9773L29.798 44.2156C29.6147 44.5324 29.4519 44.8229 29.3154 45.091C29.1751 45.359 29.061 45.5951 28.9731 45.8013H28.9337C28.9525 45.6326 28.9711 45.4696 28.9861 45.3084C29.0011 45.1472 29.0142 44.9673 29.0254 44.7761C29.0367 44.583 29.046 44.36 29.0498 44.0994L29.1265 40.5342H28.0527V40.5324Z" fill="#818181"/>
<path fill-rule="evenodd" clip-rule="evenodd" d="M94.2662 24.5338C94.6128 23.6229 94.9583 22.7137 95.2614 21.8028V21.7596C95.5211 21.023 95.8676 20.2001 96.2566 19.5497C96.6457 18.9855 97.2084 18.4231 97.944 18.5956C98.6795 18.768 98.9392 19.5497 99.0251 20.2001C99.111 20.9368 99.0685 21.7166 98.9826 22.4531L98.8532 24.3594C101.751 24.187 104.607 23.8403 107.376 23.4054C107.808 22.6256 108.24 21.8009 108.674 21.0211C109.149 20.067 109.712 19.1148 110.404 18.3331C110.621 18.0295 110.922 17.7258 111.225 17.5103C111.658 17.2067 112.135 17.0773 112.61 17.2929C113.562 17.7258 113.345 18.9836 113.173 19.7633V19.8065L112.481 22.4082C113.648 22.1045 114.774 21.8009 115.898 21.4541C117.629 16.5562 118.97 11.5721 119.877 6.41364V6.37053L119.921 6.32742C120.049 5.8082 120.31 4.63668 119.748 4.20369C119.402 3.94314 118.839 3.98625 118.45 4.03124C117.715 4.16058 116.979 4.46423 116.417 4.85411C115.898 5.20088 115.378 5.67699 115.075 6.19808V6.2412C112.436 10.4455 109.841 14.6499 107.245 18.8543C106.596 19.8515 105.298 20.7605 104.13 20.2414C103.221 19.8515 102.962 18.8974 102.962 17.9864C103.18 14.5187 103.395 11.0941 103.612 7.66952C103.655 6.58609 103.483 4.85224 102.27 4.46235C101.751 4.24492 101.189 4.41924 100.712 4.67979C99.8484 5.19901 99.1988 6.10998 98.7654 6.97785H98.722C95.5211 12.5262 93.0557 18.5075 90.9347 24.5769C92.0608 24.5769 93.1851 24.5769 94.2662 24.5338ZM59.8334 14.1738C59.8764 13.3941 60.0073 12.5693 60.1795 11.8327C60.4395 10.5749 61.2177 7.67139 62.862 7.67139C64.8094 7.62828 66.7118 7.62828 68.6161 7.58517H68.659C72.0337 7.58517 73.201 9.40527 71.8598 12.483L71.8167 12.5262V12.5693C71.4276 13.3059 70.9076 13.9994 70.3034 14.6068C68.487 16.4268 66.0215 16.8618 63.5111 16.7736C63.251 16.7305 62.993 16.7305 62.7329 16.7305C61.9117 16.7305 61.0886 16.6443 60.4395 16.0801C59.9195 15.5609 59.7904 14.8673 59.8334 14.1738ZM87.777 24.4907C87.9061 24.0577 88.0801 23.6247 88.2521 23.1898C89.3334 20.0689 90.2426 16.9049 91.1067 13.7408C91.1067 13.4371 91.1067 12.7436 90.8467 12.6143C90.7607 12.528 90.5867 12.6143 90.5006 12.6143C90.0686 12.7886 89.6365 13.1335 89.3334 13.4371H89.2903C88.5982 14.0876 88.0352 15.4746 87.6891 16.3406C87.083 17.902 86.6509 19.5047 86.1757 21.1093C85.8297 22.1927 85.5267 23.3192 85.1375 24.4044C86.0037 24.4476 86.8698 24.4907 87.777 24.4907ZM76.0107 23.7971C76.0967 23.6678 76.1398 23.5366 76.1847 23.4073C76.5737 22.2807 77.0489 21.1973 77.4829 20.0689C77.8289 19.203 78.175 18.2919 78.4781 17.381C78.8242 16.2544 79.0842 15.1279 79.2993 13.9564C79.3423 13.5665 79.3853 12.8298 78.9532 12.5693C78.6932 12.3968 78.261 12.483 77.958 12.6124C77.352 12.8298 76.8337 13.3921 76.4447 13.9564C75.3204 15.9939 74.4113 18.2039 73.8482 20.4588V20.545L73.8052 20.5881C73.3731 21.6716 72.4209 23.1448 71.0366 22.798C70.2585 22.6238 69.7815 21.9752 69.6093 21.2367L69.5664 21.1936V21.1505C69.3942 20.1964 68.7881 19.5029 68.053 18.8974L67.1008 18.1176L68.1391 17.4241C71.9889 14.7361 74.4974 11.6583 73.8482 6.6742C73.1991 3.94314 68.3972 3.94314 66.2778 4.02936H66.2347C62.948 3.98625 59.6164 3.94314 56.3279 3.85692C55.6357 5.93754 54.9435 7.97505 54.2514 10.0126C53.0842 13.6546 51.958 17.3379 51.0077 21.023C52.8671 21.2405 54.8145 21.4991 56.7169 21.7166C56.9339 21.3267 57.192 20.9368 57.4521 20.6762L57.7121 20.4156H58.1012C60.3516 20.4588 62.6 20.5019 64.8505 20.545H64.9365C66.4498 20.6743 67.9651 21.2817 68.6572 22.8C68.7003 22.8862 68.7432 23.0174 68.7863 23.1467C71.2106 23.4073 73.6331 23.6229 76.0107 23.7971ZM47.8931 20.6762C48.1532 19.9395 48.3683 19.246 48.5852 18.5093C48.9313 17.2517 49.4064 15.171 48.6713 13.9582C48.6283 13.872 48.5423 13.7858 48.4974 13.6977C48.1513 13.4371 47.8052 13.1785 47.4591 13.0042C45.7288 12.0931 43.6093 12.0931 41.75 12.44C40.0626 12.7868 38.2462 13.4803 36.8189 14.4343C36.1698 14.8673 34.8716 15.8645 34.8286 16.7324V16.8186L34.7856 16.9049C34.8285 17.2517 35.6946 17.6415 35.9528 17.7278C36.2559 17.814 37.0771 17.9882 37.3801 17.857L37.4232 17.814L37.5092 17.6846C39.1535 15.8645 41.0559 14.7361 43.5214 15.8645C44.0396 16.0819 44.4736 16.4718 44.7318 17.0342C45.2518 18.0745 44.9918 19.3322 44.3426 20.2844C45.5137 20.4156 46.6828 20.545 47.8931 20.6762ZM24.6205 19.5047C24.7926 17.2517 25.4847 15.0398 26.7829 12.9592C28.6424 9.79508 31.5419 7.32462 34.4395 5.11279C34.6995 4.85224 34.9596 4.2468 34.6995 3.89816C34.4395 3.50827 33.7904 3.7257 33.4874 3.85504C31.3249 4.98158 29.2485 6.1962 27.3011 7.58329C24.8786 9.23092 22.6732 11.1372 20.5968 13.2179C20.0767 13.737 19.4295 14.2151 18.7373 14.4325C18.0882 14.6499 17.3961 14.5618 16.8779 14.1288C16.1858 13.5646 16.0998 12.5674 16.3579 11.7445V11.6583C17.05 9.75018 17.6131 7.80072 18.0022 5.80633C18.0882 5.37333 18.1743 4.80913 18.0452 4.37613C18.0022 4.28991 17.9161 4.1587 17.8282 4.11558C17.6991 4.07247 17.4822 4.1587 17.3531 4.24492C16.964 4.46235 16.6179 4.89535 16.4009 5.32834C13.8493 9.75018 11.816 14.5187 10.0426 19.2854C9.52442 20.7587 9.00441 22.2339 8.48438 23.7072C12.7251 21.0661 18.2622 19.8515 24.6205 19.5047ZM123.596 18.4643C125.412 14.3463 126.97 10.0988 128.354 5.89443C128.527 5.46143 128.572 4.85411 128.183 4.50734C127.837 4.16058 127.231 4.11746 126.798 4.20369C126.28 4.28991 125.761 4.59357 125.5 5.11466V5.15777C124.851 6.28431 124.333 7.54205 123.856 8.75481C123.25 10.3162 122.732 11.9189 122.255 13.5665C121.649 15.6471 121.088 17.7278 120.524 19.8083C121.563 19.4185 122.6 18.9424 123.596 18.4643Z" fill="#818181"/>
<path fill-rule="evenodd" clip-rule="evenodd" d="M134.757 26.2686C133.372 24.7952 128.614 21.5 126.668 21.4137C121.606 21.2844 129.134 27.0914 129.74 28.0024C131.47 29.7794 121.002 31.3838 121.174 35.3708C121.174 35.9781 121.52 36.1506 122.126 35.935C124.246 35.1121 128.095 33.0315 129.523 32.338C131.47 31.3408 137.31 28.9565 134.757 26.2686ZM142.63 26.6585C141.332 25.2713 136.919 22.1936 135.146 22.1504C130.475 22.0211 137.439 27.395 138 28.2199C139.559 29.8675 129.912 31.3838 130.041 35.069C130.084 35.5901 130.387 35.7625 130.949 35.5451C132.897 34.8085 136.487 32.9003 137.786 32.2067C139.601 31.3408 145.01 29.1289 142.63 26.6585Z" fill="#818181"/>
<path fill-rule="evenodd" clip-rule="evenodd" d="M125.629 22.2792C125.629 22.4967 125.975 23.0158 126.104 23.1452C126.493 23.7525 127.056 24.3148 127.532 24.8359C128.094 25.4001 128.655 25.9193 129.261 26.4835C129.564 26.7441 130.039 27.1771 130.3 27.5669C130.517 27.7844 130.646 28.0862 130.646 28.3898C130.646 28.433 130.646 28.433 130.646 28.4761C130.906 28.3898 131.121 28.3468 131.381 28.3036C132.505 28.0431 133.587 27.8275 134.67 27.6532C134.67 27.3065 134.453 27.0028 134.237 26.7872C133.025 25.4864 128.354 22.193 126.667 22.1499C126.493 22.1499 125.844 22.1499 125.629 22.2792Z" fill="#818181"/>
<path fill-rule="evenodd" clip-rule="evenodd" d="M134.281 22.9728C134.324 23.4919 135.665 24.9241 136.011 25.2708C136.531 25.79 137.05 26.268 137.57 26.7872C137.699 26.9166 137.873 27.0478 138.09 27.2203C139.474 27.134 140.815 27.0909 142.068 27.0909C140.901 25.9213 136.706 22.9296 135.147 22.8866C134.973 22.8434 134.453 22.8866 134.281 22.9728Z" fill="#818181"/>
</g>
<defs>
<clipPath id="clip0_429_78">
<rect width="146" height="50" fill="white"/>
</clipPath>
</defs>
</svg>
