<svg width="79" height="50" viewBox="0 0 79 50" fill="none" xmlns="http://www.w3.org/2000/svg">
<g opacity="0.8">
<path d="M6.32981 0.0314244L72.4164 0C76.1245 0.420896 78.7528 3.49953 79 7.18857V42.5248C78.7149 46.3186 75.9388 49.7115 72.0384 50H6.96156C3.13602 49.7153 0.351393 46.4414 0.00473576 42.7105L0 6.99811C0.297406 3.51667 2.83293 0.519931 6.32981 0.0314244ZM6.42358 0.600872C3.15023 1.10938 0.806973 3.90995 0.568291 7.18857L0.573027 42.52C0.893164 46.1081 3.4571 49.1744 7.15099 49.4286H71.849C75.6622 49.1468 78.1978 45.9443 78.4317 42.2391V7.37902C78.2091 3.87377 75.7759 0.931304 72.2279 0.5704L6.42358 0.600872Z" fill="white"/>
<path d="M70.6139 4.38418C72.4211 4.59939 74.1837 6.41819 74.2491 8.27699C62.5243 14.1143 50.8251 20.0154 39.2841 26.2127C38.801 26.3555 36.3233 26.3631 35.7531 26.2917C35.6489 26.2784 35.5419 26.2984 35.4737 26.1917C32.1662 17.6034 26.6405 9.93963 19.3247 4.38513H70.613L70.6139 4.38418Z" fill="white"/>
<path d="M29.5549 26.286H8.48079C6.51545 26.286 4.7708 24.1168 4.64009 22.2437C4.32469 17.6872 4.87594 12.7535 4.6562 8.15796C5.27847 4.58986 8.31315 4.08898 11.4217 4.38037C11.9559 4.43084 13.0745 5.29072 13.5784 5.6402C17.1387 8.10749 20.5873 11.4356 23.3018 14.8142C26.0069 18.1814 28.3643 22.0971 29.5549 26.287V26.286Z" fill="white"/>
<path d="M74.2605 13.5258V22.7151C74.2605 24.2691 71.9437 26.286 70.4245 26.286H48.4979L54.5578 22.9988C61.0695 19.7297 67.5811 16.4435 74.2605 13.5258Z" fill="white"/>
<path d="M33.0897 42.8857C33.927 42.1182 34.7245 43.338 35.3619 43.7304C37.5176 45.0578 41.1121 44.9692 42.6654 42.7514C43.3398 41.7878 43.5453 40.5794 43.4316 39.4271C40.5049 43.5456 32.529 42.0715 32.1094 36.7161C31.5117 29.079 43.962 28.5124 45.1592 35.1182C45.4453 36.6961 45.432 40.9993 44.8211 42.4429C43.1551 46.3814 37.4722 46.9499 34.2225 44.7807C33.7243 44.4484 32.4077 43.5094 33.0897 42.8848V42.8857ZM37.6796 32.0262C34.4858 32.41 32.6587 36.1038 34.7661 38.711C37.4835 42.0725 44.4953 40.1004 43.3227 35.1553C42.7165 32.5985 40.0323 31.7434 37.6796 32.0262Z" fill="white"/>
<path d="M59.3902 39.7128C56.5307 43.0581 49.7747 42.2591 48.3597 37.8997C46.1566 31.1139 56.2996 27.9982 60.146 33.0013C61.8973 35.2791 60.9719 38.4768 61.1699 41.1688C60.9331 41.9868 59.3902 41.684 59.3902 41.1888V39.7128ZM53.6864 32.0262C50.8241 32.37 48.8531 35.5086 50.3742 38.1597C52.3831 41.6621 59.0473 40.8298 59.394 36.6208C59.6696 33.2679 56.6681 31.6672 53.6864 32.0253V32.0262Z" fill="white"/>
<path d="M19.7993 36.6656C20.2709 39.9156 23.7309 40.9583 26.5449 40.067C27.1832 39.8652 28.6769 38.7234 29.1268 39.7147C29.4365 40.3965 28.4155 40.8412 27.9144 41.0631C23.6475 42.9524 17.6587 40.9764 18.0963 35.5724C18.6352 28.9142 29.8713 28.8304 30.217 35.5724C30.234 35.9057 30.1384 36.6656 29.697 36.6656H19.7993ZM19.894 35.4277H28.371C28.6466 35.4277 28.2081 34.2392 28.1228 34.0583C26.5183 30.674 20.2046 31.4501 19.894 35.4277Z" fill="white"/>
<path d="M68.0841 30.5988C69.5768 30.4464 71.1519 30.5502 72.494 31.2511C73.0159 31.5234 74.7217 32.6376 73.6486 33.2422C72.8056 33.7174 72.3245 32.9537 71.7325 32.588C70.5306 31.8443 68.3512 31.6529 67.1057 32.3785C66.0013 33.0223 66.0486 34.2069 67.1862 34.7792C69.1117 35.7467 74.7634 35.2905 74.3296 38.8796C73.8825 42.5819 66.3025 42.3839 64.2671 40.1889C63.6078 39.4776 64.4423 38.8501 65.2171 38.9472C65.6669 39.0034 65.846 39.3909 66.1756 39.6033C67.5073 40.4575 70.2673 40.6498 71.67 39.9213C72.7839 39.3424 72.9098 38.1663 71.8272 37.4455C70.5552 36.597 68.1475 36.6875 66.5876 36.0476C62.8605 34.5173 64.5768 30.9606 68.0822 30.6016L68.0841 30.5988Z" fill="white"/>
<path d="M10.7075 39.4262L15.3069 30.9587C15.5607 30.4588 16.613 30.6054 16.8138 31.0492C16.9957 31.4482 16.7068 31.8386 16.5335 32.1929C15.0531 35.2182 13.1588 38.1549 11.6367 41.1726C11.3317 41.7306 10.5598 41.8592 10.0872 41.4316C9.95077 41.3088 9.76513 40.9203 9.64768 40.7308C8.08394 38.2025 6.04661 34.5821 4.78501 31.9081C4.63536 31.592 4.45729 31.4672 4.6562 31.1111C4.93939 30.6026 5.75679 30.4693 6.14512 30.9206L10.7066 39.429L10.7075 39.4262Z" fill="white"/>
</g>
</svg>
